<svg width="77" height="51" viewBox="0 0 77 51" fill="none" xmlns="http://www.w3.org/2000/svg">
<path d="M62.5622 34C62.5622 37.2206 60.8814 38.7989 57.7497 38.8547V38.8568H19.2503V38.8547C16.1186 38.7989 14.4378 37.2206 14.4378 33.9997C14.4378 30.7797 16.1186 29.2008 19.2503 29.1456V29.1426H57.7497V29.1456C60.8814 29.2008 62.5622 30.78 62.5622 34ZM57.7497 41.2884V41.2857H19.2503V41.2887C16.1186 41.344 14.4378 42.9229 14.4378 46.1438C14.4378 49.3647 16.1186 50.942 19.2503 50.9979V51H57.7497V50.997C60.8814 50.942 62.5622 49.3637 62.5622 46.1429C62.5622 42.922 60.8814 41.3437 57.7497 41.2884ZM69.7809 14.5769V14.5742C66.6498 14.63 64.9684 16.2083 64.9684 19.4292V46.1429C64.9684 49.3637 66.6498 50.9411 69.7809 50.997V50.9921C74.4782 50.8254 77 46.0903 77 36.4286V24.2857C77 17.8448 74.4779 14.6889 69.7809 14.5769ZM7.21875 14.5739V14.5769C2.52205 14.6883 0 17.8445 0 24.2857V36.4286C0 46.0903 2.52175 50.8248 7.21875 50.9918V50.997C10.3505 50.9417 12.0312 49.3634 12.0312 46.1429V19.4286C12.0312 16.208 10.3505 14.6297 7.21875 14.5739ZM69.7812 12.1429C69.7812 4.09123 65.5784 0.145714 57.75 0.006375V0H19.25V0.006375C11.4222 0.146018 7.21875 4.09123 7.21875 12.1432V12.1471C11.916 12.2306 14.4378 14.5978 14.4378 19.4289C14.4378 24.2596 16.9596 26.6266 21.6566 26.7103V26.7143H55.3441V26.7106C60.0405 26.6272 62.5622 24.2599 62.5622 19.4292C62.5622 14.5981 65.0839 12.2309 69.7809 12.1474L69.7812 12.1429Z" fill="#E42528"/>
</svg>
