<svg width="74" height="74" viewBox="0 0 74 74" fill="none" xmlns="http://www.w3.org/2000/svg">
<path d="M37 0C16.5997 0 0 16.5439 0 37C0 57.4003 16.5439 74 37 74C57.4003 74 74 57.4561 74 37C74 16.5439 57.4003 0 37 0ZM61.9834 43.4834C61.9834 45.719 60.6979 47.6754 58.1828 48.1223C53.8232 48.9048 44.657 49.3519 37 49.3519C29.3427 49.3519 20.1766 48.9048 15.8172 48.1223C13.3024 47.6754 12.0166 45.719 12.0166 43.4834V29.0635C12.0166 26.8279 13.7493 24.7599 15.8172 24.4243C17.1027 24.2009 20.1208 23.9774 22.4685 23.9774C23.3626 23.9774 24.089 24.6481 24.089 25.7101V35.8264L37.0558 35.5469L50.0226 35.8264V25.7101C50.0226 24.6481 50.7493 23.9774 51.6436 23.9774C53.9908 23.9774 57.0092 24.2009 58.2947 24.4243C60.4184 24.7596 62.0952 26.8279 62.0952 29.0635C61.9834 33.8142 61.9834 38.6769 61.9834 43.4834Z" fill="#ED2226"/>
</svg>
