<svg width="55" height="63" viewBox="0 0 55 63" fill="none" xmlns="http://www.w3.org/2000/svg">
<path d="M35.5044 62.1624H36.258L48.5602 55.9928L48.7649 55.7025V6.45625L48.5602 6.16451L36.258 0H35.4951L35.5044 62.1624Z" fill="#5294CF"/>
<path d="M19.4953 62.1624H18.7311L6.43945 55.9928L6.19002 55.5625L6.06348 6.70706L6.43945 6.16451L18.7311 0H19.5047L19.4953 62.1624Z" fill="#1F5B98"/>
<path d="M18.7524 0H36.2463V62.1624H18.7524V0Z" fill="#2D72B8"/>
<path d="M55 29.6847L54.5842 29.5923L48.6485 29.0373L48.5604 29.0812L36.2473 28.5874H18.7526L6.43929 29.0812V19.6644L6.4264 19.6713L6.43929 19.6437L18.7526 16.7823H36.2473L48.5604 19.6437L53.087 22.0568V20.5054L55 20.2955L54.8019 19.9081L48.745 15.5645L48.5604 15.6246L36.2473 11.7982H18.7526L6.43929 15.6246V6.16455L0 13.7303V20.3378L0.0498437 20.3016L1.91297 20.5054V22.0887L0 23.1154V29.6899L0.0498437 29.6847L1.91297 29.7123V32.4718L0.305508 32.4959L0 32.4666V39.0438L1.91297 40.0754V41.677L0.0801366 41.88L0 41.8196V48.4261L6.43929 55.9929V46.5336L18.7526 50.3601H36.2473L48.5968 46.5224L48.7609 46.5946L54.7381 42.315L55 41.8886L53.087 41.677V40.1075L52.8363 40.0071L48.745 42.2189L48.5968 42.5292L36.2473 45.374V45.3774H18.7526V45.374L6.43929 42.5171V33.0658L18.7526 33.558V33.57H36.2473L48.5604 33.0658L48.8408 33.1951L54.5941 32.6983L55 32.4994L53.087 32.4718V29.7123L55 29.6847Z" fill="#1A476F"/>
<path d="M48.5605 46.5336V55.9929L55.0001 48.4261V41.8627L48.5977 46.5224L48.5605 46.5336ZM48.5605 42.5378L48.5977 42.5292L55.0001 39.0757V32.4718L48.5605 33.0658V42.5378ZM48.5977 19.6524L48.5605 19.6437V29.0812L55.0001 29.6847V23.0841L48.5977 19.6524ZM48.5977 15.6617L55.0001 20.2955V13.732L48.5605 6.16455V15.6246L48.5977 15.6376V15.6617Z" fill="#2D72B8"/>
</svg>
