<svg width="60" height="69" viewBox="0 0 60 69" fill="none" xmlns="http://www.w3.org/2000/svg">
<path d="M0.0200195 54.8442L0.429509 54.2672L19.8803 17.3573L19.9175 16.9664L11.3368 0.847382C10.6109 -0.51138 8.60069 -0.15773 8.35872 1.34994L0.0200195 54.8442Z" fill="#FFC24A"/>
<path d="M26.1707 29.1587L32.555 22.6255L26.1707 10.4339C25.5565 9.27986 23.8627 9.27986 23.267 10.4339L19.8608 16.9485V17.5069L26.1707 29.1587Z" fill="#F4BD62"/>
<path d="M0.0185547 54.8444L0.204687 54.6582L0.874761 54.379L25.7792 29.5863L26.077 28.7301L19.8788 16.8921L0.0185547 54.8444Z" fill="#F6820C"/>
<path d="M26.9704 67.3519L49.4924 54.7881L43.0522 15.1606C42.8475 13.9135 41.3212 13.4296 40.4464 14.323L0.0185547 54.8439L22.4288 67.3519C23.8248 68.1523 25.5558 68.1523 26.9704 67.3519Z" fill="#FDE068"/>
<path d="M49.306 54.6764L42.9216 15.3654C42.7169 14.1369 41.4512 13.6344 40.5764 14.5092L0.260254 54.7695L22.4099 67.1473C23.8059 67.929 25.5183 67.929 26.9329 67.1473L49.306 54.6764Z" fill="#FCCA3F"/>
<path d="M26.9705 66.9803C25.5559 67.762 23.8249 67.762 22.4103 66.9803L0.186132 54.6584L0 54.8445L22.4103 67.3525C23.8249 68.1343 25.5559 68.1343 26.9705 67.3525L49.4924 54.7886L49.4366 54.4536L26.9705 66.9803Z" fill="#EEAB37"/>
<path d="M57.6595 54.4809C58.9523 46.4942 53.5259 38.9718 45.5392 37.679C37.5526 36.3861 30.0301 41.8126 28.7373 49.7992C27.4445 57.7858 32.8709 65.3083 40.8576 66.6011C48.8442 67.8939 56.3667 62.4675 57.6595 54.4809Z" fill="#757575"/>
<path fill-rule="evenodd" clip-rule="evenodd" d="M36.5801 48.1654L43.0947 44.8652L49.7861 48.1654V51.512L43.0947 48.1989L36.5801 51.512V48.1654Z" fill="white"/>
<path fill-rule="evenodd" clip-rule="evenodd" d="M36.5801 53.8651L43.0947 50.5649L49.7861 53.8651V57.2117L43.0947 53.8986L36.5801 57.2117V53.8651Z" fill="white"/>
<path fill-rule="evenodd" clip-rule="evenodd" d="M43.1104 57.1331L45.0108 56.2471L48.3555 57.7864L43.1104 60.3047V57.1331Z" fill="white"/>
</svg>
