<svg width="180" height="53" viewBox="0 0 180 53" fill="none" xmlns="http://www.w3.org/2000/svg">
<path d="M137.409 27.2994C139.67 27.2994 141.505 28.2649 142.915 30.1959V27.6649H144.663V41.5209H142.915V39.1465C141.331 41.0424 139.522 41.9906 137.487 41.9906C135.452 41.9906 133.73 41.2688 132.32 39.8248C130.929 38.3636 130.233 36.6327 130.233 34.6322C130.233 32.6142 130.937 30.8921 132.346 29.4653C133.756 28.0216 135.443 27.2994 137.409 27.2994ZM105.851 27.2994C108.113 27.2994 109.948 28.2649 111.357 30.1959V27.6649H113.105V41.5209H111.357V39.1465C109.774 41.0424 107.965 41.9906 105.929 41.9906C103.894 41.9906 102.172 41.2688 100.763 39.8248C99.3709 38.3636 98.675 36.6327 98.675 34.6322C98.675 32.6142 99.3796 30.8921 100.789 29.4653C102.198 28.0216 103.885 27.2994 105.851 27.2994ZM152.536 22.7855C155.197 22.7855 157.146 22.9857 158.381 23.3859C159.633 23.7686 160.712 24.3861 161.617 25.2386C162.521 26.0735 163.217 27.1 163.704 28.3176C164.191 29.5355 164.435 30.962 164.435 32.5973C164.435 34.2148 164.052 35.7459 163.287 37.1895C162.539 38.6164 161.512 39.6949 160.208 40.4255C158.92 41.1558 157.059 41.5212 154.623 41.5212H148.648V22.7855H152.536ZM126.864 27.6653V41.5212H125.063V27.6649H126.864V27.6653ZM77.8096 22.7852L85.4289 38.1547L92.9962 22.7855H93.2834L95.9713 41.5212H94.1186L92.2919 28.1091L85.6638 41.5212H85.194L78.4879 28.0044L76.6612 41.5212H74.8608L77.5224 22.7855H77.8096V22.7852ZM120.9 27.2994C121.474 27.2994 122.048 27.456 122.622 27.7692L121.683 29.2827C121.422 29.1261 121.152 29.0479 120.874 29.0479C120.335 29.0479 119.821 29.3263 119.334 29.8831C118.865 30.4396 118.517 31.1617 118.291 32.0489C118.064 32.9186 117.951 34.5101 117.951 36.8237V41.5212H116.125V27.6646H117.951V29.6738C118.438 28.8562 118.908 28.2562 119.36 27.8735C119.83 27.4908 120.343 27.2991 120.9 27.2991V27.2994ZM172.047 22.7855C174.013 22.7855 175.5 23.1858 176.51 23.9862C177.536 24.7688 178.049 25.8997 178.049 27.3781C178.054 28.1782 177.837 28.9641 177.423 29.6486C177.023 30.3269 176.431 30.8749 175.649 31.2923C176.936 31.7101 177.91 32.3361 178.571 33.171C179.249 34.0062 179.589 34.9977 179.589 36.1458C179.589 37.6941 179.024 38.9815 177.893 40.0077C176.762 41.0167 175.301 41.5212 173.509 41.5212H168.342V22.7855H172.047ZM137.513 29.0219C135.982 29.0219 134.686 29.5871 133.625 30.718C132.564 31.8313 132.033 33.1535 132.033 34.6842C132.033 36.2149 132.573 37.5459 133.651 38.6767C134.73 39.79 136.017 40.3469 137.513 40.3469C139.026 40.3469 140.323 39.8076 141.401 38.7291C142.48 37.6505 143.019 36.2936 143.019 34.6582C143.019 33.0752 142.488 31.7442 141.427 30.6657C140.366 29.5699 139.061 29.0219 137.513 29.0219ZM105.955 29.0219C104.425 29.0219 103.129 29.5871 102.068 30.718C101.006 31.8313 100.476 33.1535 100.476 34.6842C100.476 36.2149 101.015 37.5459 102.094 38.6767C103.172 39.79 104.46 40.3469 105.955 40.3469C107.469 40.3469 108.765 39.8076 109.843 38.7291C110.922 37.6505 111.462 36.2936 111.462 34.6582C111.462 33.0752 110.931 31.7442 109.87 30.6657C108.808 29.5699 107.504 29.0219 105.955 29.0219ZM151.779 24.6119H150.448V39.7465H152.614C154.875 39.7465 156.511 39.6335 157.52 39.4074C158.546 39.1813 159.442 38.7375 160.207 38.0767C160.969 37.4029 161.567 36.5638 161.956 35.6237C162.356 34.667 162.556 33.5709 162.556 32.3358C162.556 31.1007 162.321 29.9614 161.852 28.9176C161.399 27.8738 160.747 27.0126 159.895 26.334C159.042 25.6557 158.033 25.2035 156.868 24.9774C155.719 24.7337 154.023 24.6119 151.779 24.6119ZM171.239 32.4924H170.195V39.6945H172.517C173.857 39.6945 174.84 39.5639 175.466 39.3031C176.11 39.0247 176.631 38.6072 177.031 38.0504C177.432 37.4764 177.632 36.8936 177.632 36.302C177.632 35.7108 177.518 35.1891 177.292 34.7365C177.066 34.2843 176.727 33.8841 176.275 33.5361C175.84 33.1886 175.309 32.9274 174.683 32.7532C174.074 32.5794 172.926 32.4924 171.239 32.4924ZM172.361 24.6119H170.194V30.6137H171.265C172.9 30.6137 174.117 30.3525 174.918 29.8308C175.718 29.3087 176.118 28.4914 176.118 27.3777C176.118 25.5338 174.866 24.6119 172.361 24.6119ZM125.951 22.3158C126.368 22.3158 126.716 22.4632 126.994 22.7592C127.29 23.0376 127.438 23.3855 127.438 23.803C127.438 24.2032 127.29 24.5508 126.994 24.8468C126.716 25.1252 126.368 25.2646 125.951 25.2646C125.55 25.2646 125.203 25.1164 124.907 24.8208C124.628 24.5248 124.489 24.1857 124.489 23.8026C124.489 23.4027 124.628 23.0548 124.907 22.7592C125.203 22.4636 125.551 22.3154 125.951 22.3154V22.3158Z" fill="#A57242"/>
<path d="M78.0605 0.00138937C76.8271 0.040711 77.2175 0.396361 74.5521 1.05219C71.8607 1.71434 68.5731 1.51141 65.6749 2.72687C57.0231 6.35535 55.2869 18.7568 47.4219 23.1991C41.5426 26.52 35.6114 26.7847 30.2784 28.4559C26.7738 29.5548 22.94 31.8087 19.7647 34.5448C17.3001 36.6695 17.2359 38.5377 14.6607 41.2024C11.906 44.0529 3.71309 41.2505 0 45.6131C1.19615 46.8226 1.72032 47.1614 4.07787 46.8475C3.58986 47.7726 0.713056 48.552 1.2762 49.9125C1.86848 51.3449 8.8235 52.3153 15.1462 48.498C18.0904 46.7204 20.4357 44.1582 25.0216 43.5466C30.9556 42.7556 37.792 44.0539 44.6613 45.0443C43.6432 48.0816 41.5977 50.1014 39.9596 52.5204C39.4522 53.0666 40.9788 53.1277 42.7198 52.7977C45.8518 52.0232 48.109 51.3997 50.4732 50.0238C53.3774 48.3333 53.8173 43.9991 57.3805 43.061C59.3659 46.1123 64.7652 46.8331 68.116 44.3924C65.176 43.5603 64.3632 37.3025 65.3557 34.5448C66.2959 31.9344 67.2246 27.759 68.1714 24.3088C69.1878 20.6031 69.5628 15.9323 70.793 14.0448C72.6432 11.2049 74.6883 10.2296 76.4637 8.62828C78.2392 7.02697 79.864 5.46815 79.8106 1.80351C79.7938 0.623514 79.1833 -0.0344214 78.0608 0.00138937H78.0605Z" fill="#002B64"/>
<path d="M75.6405 2.17871C75.9371 3.18949 76.4009 3.65327 78.406 3.83865C78.1132 6.38086 76.4171 7.77151 74.5159 9.10564C72.8427 10.2793 71.0093 11.4091 69.8314 13.2425C68.6247 15.1201 67.8583 21.5471 65.9874 27.894C64.3699 33.378 61.9274 38.8005 57.662 41.1763C57.2165 40.0549 57.7189 37.9849 56.8328 37.3045C56.2591 38.9399 55.611 40.5005 54.8512 41.9508C52.3487 46.7347 48.643 50.3165 42.4505 51.4101C45.3888 47.4341 48.1982 43.3281 48.2589 36.4753C46.191 36.9225 46.2349 41.8072 44.1105 43.1129C42.7483 43.2611 41.3685 43.2603 39.9796 43.1768C34.2762 42.8352 28.4253 41.1208 23.0899 42.8327C19.4572 43.9987 16.486 46.7494 13.4097 48.0836C9.79426 49.6515 7.05614 50.2965 2.55416 49.6515C1.98189 48.8816 5.8491 47.8877 5.61774 46.2158C3.85563 46.0209 2.83257 46.4479 1.30078 45.752C1.47 45.4406 1.71857 45.1808 2.03139 44.9645C4.83868 43.0216 12.8129 44.5056 14.9468 42.4104C16.2641 41.118 17.1284 39.7649 18.023 38.4501C18.8909 37.1739 19.7879 35.9332 21.1547 34.8153C21.6592 34.4024 22.208 33.9945 22.7901 33.5964C25.1188 32.0024 27.9998 30.557 30.8352 29.5606C34.6971 28.203 38.6111 28.091 42.7279 26.5181C45.2712 25.5459 48.0363 24.3456 50.291 22.6656C50.8217 22.272 51.326 21.8439 51.8007 21.3842C58.2378 15.1092 59.514 4.04017 69.5568 3.00868C70.7712 2.88404 71.7652 2.92442 72.6703 2.89668C73.713 2.86579 74.6364 2.74466 75.6405 2.17871ZM63.3974 37.6058C63.5175 39.5241 64.6308 43.3299 65.6141 44.255C63.6888 44.7233 60.3717 43.9495 59.521 42.5915C59.9581 40.6304 62.2332 38.8377 63.3974 37.6058Z" fill="#C49A6C"/>
<path d="M76.1293 4.29179C75.7512 5.08524 75.0272 6.10761 75.0272 8.1267C75.0241 8.47323 74.7639 8.71056 74.7597 8.17621C74.779 6.2031 75.3014 5.34996 75.8565 4.22894C76.1142 3.76937 76.2697 3.95861 76.1293 4.29179ZM75.7484 3.99337C75.3025 4.74996 74.2282 6.13008 74.0509 8.1418C74.0179 8.48657 73.7373 8.70003 73.7802 8.16708C73.9733 6.20345 74.832 4.9743 75.4836 3.90595C75.7793 3.47165 75.9179 3.67423 75.7484 3.99301V3.99337ZM75.4015 3.59734C74.8931 4.31356 73.2398 5.97139 72.894 7.96134C72.8319 8.30154 72.5345 8.49148 72.6219 7.9638C72.98 6.02264 74.4051 4.49717 75.1441 3.4885C75.4752 3.07984 75.5963 3.2933 75.4015 3.59734ZM75.0915 3.15567L74.9244 3.33332C74.1853 4.12608 72.4678 6.05916 71.8955 7.82828C71.7853 8.1569 71.4644 8.3033 71.6256 7.79282C72.2522 5.92153 73.9785 3.9063 74.852 3.01103C75.2375 2.65292 75.3274 2.88183 75.0915 3.15567ZM66.2178 7.16157C66.6008 5.51638 67.8805 4.76681 70.0896 4.94972C70.6225 7.40522 67.6393 8.39599 66.2178 7.16157Z" fill="#002B64"/>
</svg>
